# xmcd
#
# Track frame offsets:
#	150
#	23535
#	43122
#	63928
#
# Disc length: 1154 seconds
#
# Revision: 0
# Processed by: cddbd v1.5.2PL0 Copyright (c) Steve Scherf et al.
# Submitted via: audiograbber 1.83.01
#
DISCID=28048004
DTITLE=Eviscerate - Shadows out of time
DYEAR=2004
DGENRE=Metal
TTITLE0=Stolen heartbeats
TTITLE1=Existence
TTITLE2=What was once...is nevermore
TTITLE3=Invasion
EXTD=
EXTT0=
EXTT1=
EXTT2=
EXTT3=
PLAYORDER=
